<svg width="88" height="56" viewBox="0 0 88 56" fill="none" xmlns="http://www.w3.org/2000/svg">
<path d="M41 32.5L41 23.5C41 23.3011 41.079 23.1103 41.2197 22.9697C41.3603 22.829 41.5511 22.75 41.75 22.75L44 22.75L44 19C43.9999 18.8516 44.0438 18.7065 44.1262 18.583C44.2086 18.4596 44.3258 18.3634 44.4629 18.3066C44.6 18.2497 44.7509 18.2349 44.8965 18.2639C45.0421 18.2929 45.1758 18.3644 45.2806 18.4694L54.2806 27.4694C54.3504 27.539 54.4057 27.6218 54.4434 27.7128C54.4812 27.8039 54.5006 27.9015 54.5006 28C54.5006 28.0986 54.4812 28.1962 54.4434 28.2872C54.4057 28.3783 54.3504 28.461 54.2806 28.5306L45.2806 37.5306C45.1758 37.6357 45.0421 37.7072 44.8965 37.7362C44.7509 37.7652 44.6 37.7503 44.4629 37.6935C44.3258 37.6367 44.2086 37.5405 44.1262 37.417C44.0438 37.2936 43.9999 37.1484 44 37L44 33.25L41.75 33.25C41.5511 33.25 41.3603 33.171 41.2197 33.0303C41.079 32.8897 41 32.6989 41 32.5ZM38.75 33.25C38.9489 33.25 39.1397 33.171 39.2804 33.0303C39.421 32.8897 39.5 32.6989 39.5 32.5L39.5 23.5C39.5 23.3011 39.421 23.1103 39.2804 22.9697C39.1397 22.829 38.9489 22.75 38.75 22.75C38.5511 22.75 38.3603 22.829 38.2197 22.9697C38.079 23.1103 38 23.3011 38 23.5L38 32.5C38 32.6989 38.079 32.8897 38.2197 33.0303C38.3603 33.171 38.5511 33.25 38.75 33.25ZM35.75 33.25C35.9489 33.25 36.1397 33.171 36.2804 33.0303C36.421 32.8897 36.5 32.6989 36.5 32.5L36.5 23.5C36.5 23.3011 36.421 23.1103 36.2804 22.9697C36.1397 22.829 35.9489 22.75 35.75 22.75C35.5511 22.75 35.3603 22.829 35.2197 22.9697C35.079 23.1103 35 23.3011 35 23.5L35 32.5C35 32.6989 35.079 32.8897 35.2197 33.0303C35.3603 33.171 35.5511 33.25 35.75 33.25Z" fill="#B3B3B3"/>
</svg>
